<svg aria-hidden="true" style="position:absolute;width:0;height:0;overflow:hidden" xmlns="http://www.w3.org/2000/svg"><defs><symbol id="icon-illustration" viewBox="0 0 55 32"><path fill="#141414" style="fill:var(--color1, #141414)" d="M1.863 15.958h6.496v5.002H1.863v-5.002z"/><path fill="#a1c487" style="fill:var(--color2, #a1c487)" d="M.744 15.959h5.942v5.002H.744v-5.002z"/><path fill="#141414" style="fill:var(--color1, #141414)" d="M.727 20.98h5.982v-5.042H.727v5.042zm5.938-.04H.763v-4.962h5.902v4.962z"/><path fill="#141414" style="fill:var(--color1, #141414)" d="M2.781 15.958v1.248l.372-.204.287.192.344-.192.315.204v-1.248H2.781zM4.099 18.413h1.37v.08h-1.37v-.08zM4.099 18.941h1.37v.08h-1.37v-.08zM4.099 19.469h1.37v.08h-1.37v-.08z"/><path fill="#fefefe" style="fill:var(--color3, #fefefe)" d="M1.479 18.305h2.219v1.371H1.479v-1.371z"/><path fill="#141414" style="fill:var(--color1, #141414)" d="M1.459 19.693h2.26v-1.412h-2.26v1.412zm2.219-.04H1.499v-1.331h2.179v1.331z"/><path fill="#f27b79" style="fill:var(--color4, #f27b79)" d="M8.181 21.876H6.447a.264.264 0 0 0-.21.1l-.877 1.092a.265.265 0 0 0 .21.432h2.611v-1.623z"/><path fill="#141414" style="fill:var(--color1, #141414)" d="M5.57 23.519h2.631v-1.663H6.447a.285.285 0 0 0-.226.108l-.877 1.092a.277.277 0 0 0-.032.304c.044.096.146.16.259.16zm2.591-.04H5.57a.249.249 0 0 1-.198-.4l.877-1.092a.243.243 0 0 1 .194-.092h1.714v1.583h.004zM25.849 15.015a.265.265 0 0 1-.267.264h-.873a.266.266 0 0 1-.267-.264c0-.148.121-.264.267-.264h.873a.263.263 0 0 1 .267.264zM22.555 15.326h1.075v1.507h-1.075v-1.507z"/><path fill="#a1c487" style="fill:var(--color2, #a1c487)" d="M25.324 26.506v-8.812c0-.748-.614-1.355-1.37-1.355h-3.961c-.756 0-1.37.608-1.37 1.355v8.117a1.25 1.25 0 0 1-1.257 1.244h-1.112a1.25 1.25 0 0 1-1.257-1.244v-3.547s.028-1.071.695-1.228H8.845s-2.846 2.295-3.444 5.994v.408h19.924v-.932z"/><path fill="#141414" style="fill:var(--color1, #141414)" d="M5.38 27.458h19.964v-9.764c0-.76-.622-1.375-1.39-1.375h-3.961c-.768 0-1.39.616-1.39 1.375v8.117a1.23 1.23 0 0 1-1.237 1.223h-1.112a1.23 1.23 0 0 1-1.237-1.223v-3.547c0-.012.032-1.055.683-1.207l.17-.04-7.033.004c-.008.004-.724.588-1.5 1.611-.719.948-1.641 2.479-1.948 4.394l-.008.432zm19.923-.04H5.42v-.388c.307-1.903 1.225-3.431 1.94-4.37.74-.976 1.423-1.547 1.492-1.603h6.718c-.562.244-.59 1.164-.594 1.207v3.547c0 .696.574 1.263 1.277 1.263h1.112c.703 0 1.277-.568 1.277-1.263v-8.117c0-.736.606-1.335 1.35-1.335h3.961c.744 0 1.35.6 1.35 1.335v9.724z"/><path fill="#141414" style="fill:var(--color1, #141414)" d="M22.624 16.334h.485v8.86h-.485v-8.86zM0 20.82h9.248v.456H0v-.456zM10.392 27.462h6.427v1.308h-6.427v-1.308z"/><path fill="#141414" style="fill:var(--color1, #141414)" d="M8.076 31.344c-1.616 0-2.926-1.473-2.926-3.291s1.31-3.291 2.926-3.291 2.927 1.473 2.927 3.291c0 1.817-1.31 3.291-2.927 3.291z"/><path fill="#fefefe" style="fill:var(--color3, #fefefe)" d="M7.583 30.048c-1.051 0-1.904-.96-1.904-2.143s.852-2.143 1.904-2.143 1.904.96 1.904 2.143c0 1.184-.852 2.143-1.904 2.143z"/><path fill="#141414" style="fill:var(--color1, #141414)" d="M7.583 30.069c1.063 0 1.924-.972 1.924-2.163s-.865-2.163-1.924-2.163-1.924.972-1.924 2.163.861 2.163 1.924 2.163zm0-4.287c1.039 0 1.884.952 1.884 2.123s-.845 2.123-1.884 2.123-1.884-.952-1.884-2.123.845-2.123 1.884-2.123z"/><path fill="#141414" style="fill:var(--color1, #141414)" d="M8.589 27.917c0 .476-.226.9-.95.9-.424 0-.582-.424-.582-.9s.162-.864.582-.864c.724 0 .95.384.95.864z"/><path fill="#fefefe" style="fill:var(--color3, #fefefe)" d="M7.591 28.781c-.424 0-.768-.387-.768-.864s.344-.864.768-.864c.424 0 .768.387.768.864s-.344.864-.768.864z"/><path fill="#141414" style="fill:var(--color1, #141414)" d="M7.591 28.797c.433 0 .788-.396.788-.884s-.352-.884-.788-.884c-.437 0-.788.396-.788.884s.356.884.788.884zm0-1.723c.412 0 .748.38.748.844s-.335.844-.748.844c-.412 0-.748-.38-.748-.844s.335-.844.748-.844zM24.564 31.344c-1.616 0-2.927-1.473-2.927-3.291s1.31-3.291 2.927-3.291 2.927 1.473 2.927 3.291c0 1.817-1.31 3.291-2.927 3.291z"/><path fill="#fefefe" style="fill:var(--color3, #fefefe)" d="M24.071 30.048c-1.051 0-1.904-.96-1.904-2.143s.852-2.143 1.904-2.143 1.904.96 1.904 2.143-.852 2.143-1.904 2.143z"/><path fill="#141414" style="fill:var(--color1, #141414)" d="M24.071 30.069c1.063 0 1.924-.972 1.924-2.163s-.865-2.163-1.924-2.163-1.924.972-1.924 2.163.861 2.163 1.924 2.163zm0-4.287c1.039 0 1.884.952 1.884 2.123s-.845 2.123-1.884 2.123-1.884-.952-1.884-2.123.845-2.123 1.884-2.123z"/><path fill="#141414" style="fill:var(--color1, #141414)" d="M25.077 27.917c0 .476-.226.864-.95.864-.424 0-.582-.388-.582-.864s.162-.864.582-.864c.724 0 .95.384.95.864z"/><path fill="#fefefe" style="fill:var(--color3, #fefefe)" d="M24.079 28.781c-.424 0-.768-.387-.768-.864s.344-.864.768-.864c.424 0 .768.387.768.864s-.344.864-.768.864z"/><path fill="#141414" style="fill:var(--color1, #141414)" d="M24.079 28.797c.433 0 .788-.396.788-.884s-.352-.884-.788-.884c-.436 0-.788.396-.788.884s.356.884.788.884zm0-1.723c.412 0 .748.38.748.844s-.336.844-.748.844-.748-.38-.748-.844.34-.844.748-.844zM2.696 27.042h.372a.775.775 0 0 1 .772-.672h8.262v1.543H3.84a.779.779 0 0 1-.764-.616h-.38v-.256z"/><path fill="#a1c487" style="fill:var(--color2, #a1c487)" d="M4.163 27.437s-.513-4.07 4.293-5.178c1.734-.4 5.716-.66 4.822 5.178H4.163z"/><path fill="#141414" style="fill:var(--color1, #141414)" d="M4.143 27.458h9.147l.004-.016c.331-2.171.02-3.714-.926-4.578-1.156-1.06-2.955-.844-3.921-.62-1.099.252-2.009.684-2.708 1.279a4.488 4.488 0 0 0-1.257 1.735c-.469 1.148-.348 2.171-.344 2.183l.004.016zm9.115-.04H4.179a4.814 4.814 0 0 1 .344-2.147c.428-1.047 1.459-2.419 3.933-2.991.958-.22 2.741-.436 3.884.612.938.856 1.245 2.379.918 4.526zM15.239 21.276H9.212a1.13 1.13 0 0 1-1.136-1.124 1.13 1.13 0 0 1 1.225-1.119l6.007.472a.89.89 0 0 1 .825.884c0 .488-.4.888-.893.888z"/><path fill="#a1c487" style="fill:var(--color2, #a1c487)" d="M21.415 26.986h6.888s-.113-1.004-.796-1.915c-1.495-1.979-4.604-1.707-5.703.508a3.921 3.921 0 0 0-.388 1.407z"/><path fill="#141414" style="fill:var(--color1, #141414)" d="M21.391 27.006h6.932l-.004-.024c0-.012-.121-1.02-.8-1.923a3.373 3.373 0 0 0-3.028-1.327 3.344 3.344 0 0 0-2.712 1.839c-.206.42-.34.892-.388 1.412v.024zm6.888-.04H21.44c.049-.504.178-.968.38-1.375a3.288 3.288 0 0 1 2.68-1.815 3.338 3.338 0 0 1 2.991 1.311 4.44 4.44 0 0 1 .788 1.879z"/><path fill="#141414" style="fill:var(--color1, #141414)" d="M4.115 27.701h17.717v-.528h6.463v-.48H21.82a.471.471 0 0 0-.473.468v.06H4.115v.48zM16.544 30.288h1.184v-.48h-1.019l-2.28-1.719-.291.38 2.405 1.819z"/><path fill="#a1c487" style="fill:var(--color2, #a1c487)" d="M22.518 15.826h1.476a1.071 1.071 0 0 0 1.076-1.068 1.069 1.069 0 0 0-1.079-1.064h-.214c-.74 0-1.447.364-1.831.992-.02.032-.04.068-.06.104a.709.709 0 0 0 .634 1.036z"/><path fill="#141414" style="fill:var(--color1, #141414)" d="M22.518 15.846h1.475a1.086 1.086 0 0 0 1.1-1.088c0-.292-.113-.564-.323-.768a1.119 1.119 0 0 0-.509-.288 1.218 1.218 0 0 0-.267-.032h-.214c-.76 0-1.467.384-1.847 1.004l-.061.104a.713.713 0 0 0 .016.712.734.734 0 0 0 .631.356zm1.476-2.131a1.086 1.086 0 0 1 .748.308c.198.196.311.46.311.74 0 .484-.331.9-.8 1.016-.085.02-.17.032-.255.032h-1.475a.68.68 0 0 1-.594-.336.668.668 0 0 1-.016-.672l.061-.104c.372-.608 1.067-.984 1.811-.984h.21z"/><path fill="#141414" style="fill:var(--color1, #141414)" d="M23.513 14.763c0 .424.186.804.481 1.068h.004c.594 0 1.079-.476 1.079-1.068 0-.296-.121-.56-.315-.752s-.465-.312-.76-.312h-.004a1.39 1.39 0 0 0-.485 1.064z"/><path fill="#fefefe" style="fill:var(--color3, #fefefe)" d="M23.808 14.763c0 .408.17.772.445 1.036.469-.116.817-.536.817-1.036a1.069 1.069 0 0 0-.816-1.032 1.404 1.404 0 0 0-.445 1.032z"/><path fill="#141414" style="fill:var(--color1, #141414)" d="m24.249 15.818.012-.004c.489-.12.833-.552.833-1.056 0-.292-.113-.564-.323-.768a1.114 1.114 0 0 0-.509-.288l-.012-.004-.008.008c-.291.276-.453.648-.453 1.048s.162.772.453 1.048l.008.016zm.012-2.067c.182.048.348.14.481.272a1.039 1.039 0 0 1-.481 1.752 1.393 1.393 0 0 1-.433-1.012c0-.388.154-.744.433-1.012z"/><path fill="#a1c487" style="fill:var(--color2, #a1c487)" d="M21.068 14.855h.796v.324h-.796v-.324z"/><path fill="#141414" style="fill:var(--color1, #141414)" d="M21.051 15.203h.837v-.364h-.837v.364zm.793-.04h-.756v-.284h.756v.284z"/><path fill="#141414" style="fill:var(--color1, #141414)" d="M22.163 14.747h-.319c-.15 0-.267.12-.267.264 0 .148.121.264.267.264h.319c.15 0 .267-.12.267-.264s-.117-.264-.267-.264zM21.221 15.015a.265.265 0 0 1-.267.264h-.873a.265.265 0 0 1-.267-.264c0-.148.121-.264.267-.264h.873a.263.263 0 0 1 .267.264z"/><path fill="#fff" style="fill:var(--color5, #fff)" d="M6.795 26.414h3.945v.224H6.795v-.224z"/><path fill="#141414" style="fill:var(--color1, #141414)" d="M6.774 26.658h3.986v-.264H6.774v.264zm3.946-.04H6.815v-.184h3.905v.184z"/><path fill="#fff" style="fill:var(--color5, #fff)" d="M6.795 25.823h3.945v.224H6.795v-.224z"/><path fill="#141414" style="fill:var(--color1, #141414)" d="M6.774 26.066h3.986v-.264H6.774v.264zm3.946-.04H6.815v-.184h3.905v.184z"/><path fill="#fff" style="fill:var(--color5, #fff)" d="M6.795 25.234h3.945v.224H6.795v-.224z"/><path fill="#141414" style="fill:var(--color1, #141414)" d="M6.774 25.479h3.986v-.264H6.774v.264zm3.946-.04H6.815v-.184h3.905v.184zM12.801 30.284h8.286v.08h-8.286v-.08zM28.942 31.938h25.942V32H28.942v-.062zM34.852 31.929h3.161s-.199-.673-1.6-1.226l.004-.154.013-.836h-1.496l-.026.738-.056 1.479z"/><path fill="#141414" style="fill:var(--color1, #141414)" d="M34.826 31.951h3.213l-.009-.026c-.009-.026-.217-.686-1.6-1.235l.013-.995h-1.539l-.078 2.256zm3.157-.043h-3.109l.078-2.174h1.452l-.013.982.013.004c1.214.485 1.522 1.059 1.578 1.188zM30.733 31.929h3.161s-.199-.673-1.6-1.226l.013-.103.121-.888h-1.496l-.069.772-.13 1.445z"/><path fill="#141414" style="fill:var(--color1, #141414)" d="M30.707 31.951h3.217l-.009-.026c-.009-.026-.217-.686-1.6-1.235l.134-.999H30.91l-.204 2.26zm3.157-.043h-3.109l.195-2.174h1.452l-.134.982.017.004c1.218.485 1.522 1.059 1.578 1.188zM49.403 31.929h3.161l-.204-1.565-.082-.652h-1.496l.178.802.043.36c-1.47.446-1.6 1.055-1.6 1.055z"/><path fill="#141414" style="fill:var(--color1, #141414)" d="M49.377 31.951h3.213l-.291-2.26h-1.543l.186.828.039.339c-1.448.442-1.596 1.042-1.6 1.068l-.004.026zm3.165-.043h-3.109c.048-.12.312-.631 1.578-1.012l.017-.004-.043-.378-.173-.776h1.448l.282 2.17zM45.761 31.929h3.161l-.078-1.54-.035-.678h-1.496l.039.823.009.292c-1.401.558-1.6 1.102-1.6 1.102z"/><path fill="#141414" style="fill:var(--color1, #141414)" d="M45.73 31.951h3.217l-.117-2.26h-1.539l.043.849.009.279c-1.383.549-1.591 1.085-1.6 1.106l-.013.026zm3.17-.043h-3.104c.065-.12.386-.588 1.574-1.059l.013-.004-.009-.309-.039-.802h1.452l.113 2.174z"/><path fill="#ffac71" style="fill:var(--color6, #ffac71)" d="M37.337 1.205 35.139.716l-.238.828a.32.32 0 0 0-.178-.069c-.26 0-.312.309-.312.309-.074.335.148.54.247.686l-.754 2.389 1.869.287.16-1.527c1.609.802 1.405-2.415 1.405-2.415z"/><path fill="#141414" style="fill:var(--color1, #141414)" d="m35.793 5.164.16-1.518c.316.15.59.159.806.017.72-.472.607-2.38.603-2.462v-.017L35.125.686l-.234.815a.29.29 0 0 0-.165-.056c-.273 0-.334.322-.334.326-.065.292.087.485.195.626.017.021.035.043.048.064l-.759 2.402 1.916.3zm.121-1.583-.16 1.535-1.821-.283.75-2.372-.004-.009-.056-.073c-.104-.137-.247-.322-.187-.592.004-.013.052-.292.291-.292.052 0 .108.021.165.064l.026.017.243-.836 2.164.48c.009.189.082 1.973-.585 2.406-.208.137-.477.124-.789-.03l-.035-.017z"/><path fill="#141414" style="fill:var(--color1, #141414)" d="M37.995.27a.711.711 0 0 0-.503.124l.026-.051c.225-.669-.724-.172-1.227-.073-.104.021-.334.051-.334.051C34.452-.018 34.604 1.5 34.604 1.5c.394-.056.512.476.512.476.403-.189.529-.459.542-.575.39.176 1.392.51 2.22-.081.568-.407.369-1.004.117-1.051zM46.727 6.631s.611-1.128.663-1.69l-.256-1.235s-.031-1.184 1.543-.896c0 0-.009-.558.364-.69 0 0-.182.313-.117.622 0 0 .303-.686.876-.326 0 0 .442.24.325.678 0 0 .009.498-.681.506 0 0 .009.622 1.53 1.467 0 0 1.266.6 1.162 1.908s-1.283 2.131-1.283 2.131l-4.336.004.208-2.479z"/><path fill="#ffac71" style="fill:var(--color6, #ffac71)" d="m49.134 7.111-.186-2.157s.325-.189.243-.558c0 0-.078-.296-.377-.069l-.009-.523s-1.049.39-1.661-.197c0 0-.442 2.041.49 2.037l-.199 1.715 1.7-.249z"/><path fill="#141414" style="fill:var(--color1, #141414)" d="m47.412 7.386 1.747-.253-.186-2.166c.061-.039.316-.232.243-.575 0-.004-.035-.129-.139-.163-.069-.021-.147-.004-.239.056l-.009-.51-.03.009c-.009.004-1.041.377-1.639-.193l-.026-.026-.009.039c-.013.056-.295 1.385.113 1.878a.479.479 0 0 0 .373.18l-.199 1.724zm1.7-.292-1.647.24.199-1.711h-.026a.447.447 0 0 1-.364-.167c-.356-.433-.152-1.583-.108-1.806.559.498 1.452.24 1.626.184l.009.536.035-.026c.091-.069.169-.094.23-.073.082.026.113.133.113.133.078.352-.221.528-.234.536l-.013.009v.013l.182 2.131zM34.904 30.454l1.509.094.013-.836H34.93l-.026.742zM30.863 30.484l1.444.116.121-.888h-1.496l-.069.772z"/><path fill="#cdcbcc" style="fill:var(--color7, #cdcbcc)" d="m33.018 12.455.061.326.369 2.011.954 5.172.056 1.707.291 8.552h2.523l.282-10.207-.399-5.691-.135-1.87h-4.002z"/><path fill="#141414" style="fill:var(--color1, #141414)" d="M34.726 30.244h2.567v-.021l.282-10.207-.533-7.582h-4.05l1.387 7.535.347 10.276zm2.524-.043h-2.484l-.347-10.237-1.379-7.488h3.954l.538 7.544-.282 10.181zM50.781 29.712l.182.802 1.4-.15-.087-.652H50.78zM47.313 29.712l.039.828 1.492-.15-.035-.678h-1.496z"/><path fill="#cdcbcc" style="fill:var(--color7, #cdcbcc)" d="M30.452 30.266h2.549l1.457-8.595.325-1.926.555-4.966.221-1.999h-4.14l.017 1.578.061 5.207-1.045 10.7z"/><path fill="#141414" style="fill:var(--color1, #141414)" d="M30.43 30.287h2.593l.004-.017 1.782-10.52.78-6.991h-4.188l.078 6.806-1.049 10.722zm2.554-.043h-2.506l1.041-10.675-.078-6.768h4.097l-.776 6.939-1.778 10.503zM46.107 18.707l.668 11.515h2.306l-.078-7.299-.048-4.164.334-3.86.13-1.54-1.934-.03-1.092-.021-.091 1.728-.195 3.671z"/><path fill="#141414" style="fill:var(--color1, #141414)" d="M46.758 30.244h2.346v-.021l-.126-11.464.468-5.421-3.07-.051-.29 5.421.672 11.537zm2.302-.043h-2.263l-.668-11.494.286-5.378 2.983.051-.464 5.378.126 11.442zM31.418 12.781l.017 1.578c.72.236 1.396.373 2.012.433a8.353 8.353 0 0 0 1.89-.017 7.068 7.068 0 0 0 1.812-.455l-.13-1.87h-4.002l.061.326h-1.66v.004z"/><path fill="#141414" style="fill:var(--color1, #141414)" d="m47.46 13.149.026.18.247 1.78.655 4.692.616 3.122 1.422 7.231 2.111.043-.971-10.623-.269-5.55-.048-.978-3.789.103z"/><path fill="#141414" style="fill:var(--color1, #141414)" d="M52.563 30.219v-.026l-.971-10.623-.321-6.549-3.833.103.928 6.682 2.042 10.37 2.155.043zm-1.335-17.151.316 6.506.971 10.597-2.072-.043-2.033-10.336-.923-6.626 3.742-.099z"/><path fill="#cdcbcc" style="fill:var(--color7, #cdcbcc)" d="m46.576 6.939-1.682 2.166-2.35.455v1.673l2.753-.257c.191-.017.369-.086.525-.193l1.101-.772-.347-3.071z"/><path fill="#141414" style="fill:var(--color1, #141414)" d="m42.522 11.258 2.779-.262c.191-.017.377-.086.538-.197l1.114-.781-.356-3.135-1.713 2.2-2.359.459v1.715h-.004zm4.383-1.257-1.092.768c-.152.107-.33.172-.516.189l-2.732.257V9.581l2.341-.455.004-.004 1.652-2.123.343 3.002z"/><path fill="#a1c487" style="fill:var(--color2, #a1c487)" d="M35.88 4.598s-.325.759-1.786-.738l-2.506.913a1.141 1.141 0 0 0-.672.853l-.395 2.204h1.37l-.633 5.893s1.847.485 3.26.515c2.333.051 2.849-.36 2.849-.36l-.104-2.093-.017-4.76c.026-.678-.26-1.188-.668-1.737l-.698-.69z"/><path fill="#141414" style="fill:var(--color1, #141414)" d="M34.908 14.265c1.981 0 2.45-.356 2.467-.369l.009-.009-.104-2.106-.017-4.76c.026-.665-.251-1.184-.672-1.75l-.72-.712-.013.03c-.004.004-.065.137-.247.172-.238.043-.689-.082-1.504-.918l-.009-.009-.013.004-2.506.913a1.16 1.16 0 0 0-.685.871l-.399 2.23h1.37l-.633 5.888.017.004c.017.004 1.864.485 3.265.519h.394zm2.433-.399c-.078.051-.69.399-2.827.352-1.318-.03-3.039-.463-3.234-.51l.633-5.901h-1.366l.39-2.179a1.11 1.11 0 0 1 .659-.836l2.493-.905c.824.841 1.292.965 1.535.918a.397.397 0 0 0 .265-.172l.676.665c.425.575.685 1.068.659 1.724l.017 4.76.1 2.084zM37.375 6.811h6.915v5.327h-6.915V6.811z"/><path fill="#fefefe" style="fill:var(--color3, #fefefe)" d="M36.183 6.811h6.326v5.327h-6.326V6.811z"/><path fill="#141414" style="fill:var(--color1, #141414)" d="M36.161 12.158h6.369V6.789h-6.369v5.369zm6.326-.043h-6.282V6.831h6.282v5.284z"/><path fill="#141414" style="fill:var(--color1, #141414)" d="M38.351 6.811v1.33l.395-.214.303.202.364-.202.338.214v-1.33H38.35zM39.747 9.427h1.461v.086h-1.461v-.086zM39.747 9.989h1.461v.086h-1.461v-.086zM39.747 10.55h1.461v.086h-1.461v-.086z"/><path fill="#fefefe" style="fill:var(--color3, #fefefe)" d="M36.964 9.311h2.363v1.458h-2.363V9.311z"/><path fill="#141414" style="fill:var(--color1, #141414)" d="M36.942 10.79h2.406V9.289h-2.406v1.501zm2.363-.042h-2.32V9.333h2.32v1.415zM46.303 15.036a8.24 8.24 0 0 0 1.431.073 7.742 7.742 0 0 0 1.552-.21 6.29 6.29 0 0 0 2.007-.875l-.048-.978-3.785.103.026.18-1.092-.017-.091 1.724z"/><path fill="#e78d4c" style="fill:var(--color8, #e78d4c)" d="M42.522 12.313a.536.536 0 0 0 .356.245l.343.077c.221.047.447.073.672.073h.299a.492.492 0 0 0 .247-.064l.321-.176.338-.039 1.257-.15v-.956l-1.058.163-.49.077-1.062-.292s-.186.382.394.575l-.564.274h-.945c-.1-.009-.165.107-.108.193z"/><path fill="#141414" style="fill:var(--color1, #141414)" d="M43.896 12.725h.299a.494.494 0 0 0 .26-.069l.316-.172 1.609-.193v-.999l-1.569.244-1.075-.296-.009.017a.36.36 0 0 0 0 .296c.052.124.173.223.36.292l-.512.249h-.941c-.056 0-.108.03-.134.077s-.026.107.004.154c.043.064.095.12.156.163a.63.63 0 0 0 .208.09l.343.077c.23.047.455.069.685.069zm2.441-.467-1.583.189-.321.176a.512.512 0 0 1-.238.06h-.299c-.225 0-.451-.026-.668-.073l-.343-.077a.565.565 0 0 1-.342-.236c-.022-.034-.022-.077-.004-.111s.056-.056.095-.056h.95l.616-.3-.052-.017c-.199-.064-.33-.163-.381-.283a.305.305 0 0 1-.004-.244l1.049.287 1.526-.236v.922zM38.273 3.534h4.288v3.302h-4.288V3.534z"/><path fill="#a1c487" style="fill:var(--color2, #a1c487)" d="M37.536 3.534h3.919v3.302h-3.919V3.534z"/><path fill="#141414" style="fill:var(--color1, #141414)" d="M37.514 6.858h3.963V3.513h-3.963v3.345zm3.92-.043h-3.876V3.556h3.876v3.259z"/><path fill="#141414" style="fill:var(--color1, #141414)" d="M38.876 3.534v.823l.247-.133.191.124.225-.124.208.133v-.823h-.871zM39.743 5.139h.906v.086h-.906v-.086zM39.743 5.485h.906v.086h-.906v-.086zM39.743 5.837h.906v.086h-.906v-.086z"/><path fill="#fefefe" style="fill:var(--color3, #fefefe)" d="M38.017 5.082h1.465v.905h-1.465v-.905z"/><path fill="#141414" style="fill:var(--color1, #141414)" d="M37.995 6.009h1.509v-.948h-1.509v.948zm1.466-.043h-1.422v-.862h1.422v.862zM45.102 12.425l1.257-.15v-.956l-1.058.163-.199.944z"/><path fill="#cdcbcc" style="fill:var(--color7, #cdcbcc)" d="m45.483 11.387.794-.15.13-3.851a.868.868 0 0 1 .312-.635l.811-.669s.156.982 1.669 0l1.4.497c.395.142.694.472.789.875l.885 4.25a.65.65 0 0 1-.62.781l-.42.013.204 1.355s-1.444.613-2.926.703c-1.708.107-2.268-.296-2.246-.352l.087-1.441-.867.034v-1.411z"/><path fill="#141414" style="fill:var(--color1, #141414)" d="M47.954 14.603c.169 0 .356-.004.555-.017 1.47-.09 2.918-.699 2.935-.708l.017-.009-.004-.017-.199-1.329.399-.013a.69.69 0 0 0 .512-.257.644.644 0 0 0 .13-.549l-.884-4.25a1.255 1.255 0 0 0-.806-.892L49.2 6.06l-.009.004c-.585.382-1.049.515-1.344.386a.526.526 0 0 1-.291-.369l-.004-.039-.837.695a.89.89 0 0 0-.321.652l-.13 3.834-.794.15v1.458l.867-.034-.087 1.415c-.004.013 0 .021.009.034.052.082.507.356 1.695.356zm3.456-.759c-.16.064-1.522.609-2.905.695-1.635.103-2.194-.266-2.22-.326v-.004l.087-1.467-.871.034v-1.377l.794-.15.13-3.868a.855.855 0 0 1 .303-.618l.78-.648a.548.548 0 0 0 .308.365c.312.137.772.009 1.379-.382l1.392.493c.39.137.681.459.776.862l.884 4.25a.632.632 0 0 1-.121.515.645.645 0 0 1-.477.24l-.447.013.208 1.372z"/><path fill="#141414" style="fill:var(--color1, #141414)" d="m51.228 12.473.003.043-4.918.279-.002-.043 4.917-.279zM46.259 11.258l3.742-.763-.338-1.844-.043.009.334 1.801-3.703.759.009.039z"/><path fill="#ffac71" style="fill:var(--color6, #ffac71)" d="M30.317 10.542a.926.926 0 0 0 .655.965l4.431 1.364.42.146c.161.056.334.073.503.051l.85-.103a.89.89 0 0 0 .156-.039l.993-.36a.65.65 0 0 0 .312-.244l.013-.021c.052-.077-.004-.18-.1-.18h-1.596c.464-.292.429-.549.429-.549l-.98.133-.715.086-3.377-1.63.39-1.926.078-.39h-2.246l-.022.227-.195 2.47z"/><path fill="#141414" style="fill:var(--color1, #141414)" d="M36.192 13.098c.048 0 .095-.004.139-.009l.85-.103a.862.862 0 0 0 .161-.039l.993-.36a.619.619 0 0 0 .321-.253l.013-.021a.13.13 0 0 0 .004-.142.136.136 0 0 0-.126-.073h-1.522c.408-.279.382-.519.377-.532l-.004-.021-1.002.133-.711.082-3.356-1.617.473-2.329h-2.289l-.234 2.723a.943.943 0 0 0 .672.986l4.431 1.364.421.146c.134.043.264.064.39.064zm2.367-.956c.035 0 .069.017.087.051a.093.093 0 0 1-.004.099l-.013.021a.649.649 0 0 1-.299.236l-.993.36a.94.94 0 0 1-.152.039l-.85.103a1.089 1.089 0 0 1-.494-.051l-.421-.146-4.431-1.364a.909.909 0 0 1-.642-.944l.23-2.685h2.198l-.468 2.307.013.009 3.382 1.63.724-.086.954-.129c-.004.064-.052.274-.42.506l-.061.039h1.66v.004z"/><path fill="#141414" style="fill:var(--color1, #141414)" d="m32.987 6.915.042.01-.24.989-.042-.01.24-.989z"/><path fill="#141414" style="fill:var(--color1, #141414)" d="m30.53 8.063 2.181.167.082-.395h-2.246l-.017.227zM42.211 19.332a.877.877 0 0 0-.614.251.865.865 0 0 0-.254.607c0-.228-.092-.446-.254-.607s-.383-.252-.614-.252c.23 0 .451-.09.614-.251s.254-.38.254-.607c0 .228.091.446.254.607s.383.251.614.251z"/><path fill="#a1c487" style="fill:var(--color2, #a1c487)" d="M44.51 24.757c.195 0 .354-.157.354-.35s-.158-.35-.354-.35c-.196 0-.354.157-.354.35s.158.35.354.35zM29.984 20.767c.196 0 .354-.157.354-.35s-.158-.35-.354-.35c-.196 0-.354.157-.354.35s.159.35.354.35zM42.08 15.055c.25 0 .452-.2.452-.448s-.202-.448-.452-.448-.452.2-.452.448.202.448.452.448z"/><path fill="#141414" style="fill:var(--color1, #141414)" d="M17.3 24.385c-.189 0-.37.074-.503.206s-.208.311-.208.498c0-.187-.075-.366-.208-.498s-.314-.206-.503-.206c.189 0 .37-.074.503-.206s.208-.311.208-.498c0 .187.075.366.208.498s.314.206.503.206z"/><path fill="#a1c487" style="fill:var(--color2, #a1c487)" d="M21.461 23.923c.13 0 .236-.105.236-.234s-.106-.234-.236-.234-.236.105-.236.234.106.234.236.234z"/><path fill="#141414" style="fill:var(--color1, #141414)" d="M28.143 12.17a.877.877 0 0 0-.614.251.86.86 0 0 0-.254.607c0-.228-.091-.446-.254-.607s-.383-.251-.614-.251c.23 0 .451-.09.614-.251s.254-.379.254-.607c0 .228.092.446.254.607s.383.251.614.251z"/><path fill="#fff" style="fill:var(--color5, #fff)" d="M26.942 6.791h.004c.106-.003.212.015.311.052a.776.776 0 0 1 .443.425.782.782 0 0 1 0 .61.79.79 0 0 1-.754.477h-3.61a.619.619 0 0 1-.498-.249.588.588 0 0 1-.083-.544.598.598 0 0 1 .4-.384.618.618 0 0 1 .549.1l.182.139-.033-.226c-.052-.354.038-.715.253-1.004s.535-.483.894-.54.725.028 1.02.236c.295.208.496.522.559.875l.019.105.101-.032a.808.808 0 0 1 .244-.038z"/><path fill="#a1c487" style="fill:var(--color2, #a1c487)" d="M27.741 31.91c.13 0 .236-.105.236-.234s-.106-.234-.236-.234-.236.105-.236.234.106.234.236.234z"/></symbol><symbol id="icon-facebook" viewBox="0 0 32 32"><path d="M19.52 4.64h.96v3.6h-1.2c-.48 0-.96 0-1.2.24s-.24.48-.24 1.04v1.28h2.64v3.04h-2.64v13.2h-4.08V13.76H11.6v-3.04h2.16V9.68c0-1.76.24-3.04.72-3.6.72-1.04 2.16-1.52 4.32-1.52.24.08.48.08.72.08z"/></symbol><symbol id="icon-instagram" viewBox="0 0 32 32"><path d="M28.717 10.756a9.264 9.264 0 0 0-.596-3.145 6.547 6.547 0 0 0-3.743-3.737 9.42 9.42 0 0 0-3.108-.596c-1.367-.061-1.801-.078-5.273-.078s-3.916 0-5.274.078a9.418 9.418 0 0 0-3.106.596 6.541 6.541 0 0 0-3.743 3.737 9.288 9.288 0 0 0-.596 3.101c-.061 1.367-.08 1.8-.08 5.265s0 3.909.08 5.265a9.335 9.335 0 0 0 .596 3.104 6.548 6.548 0 0 0 3.744 3.735 9.37 9.37 0 0 0 3.106.639c1.369.061 1.803.079 5.274.079s3.917 0 5.274-.079a9.362 9.362 0 0 0 3.108-.595 6.555 6.555 0 0 0 3.743-3.737 9.346 9.346 0 0 0 .596-3.104c.061-1.365.08-1.798.08-5.265-.003-3.466-.003-3.906-.082-5.264zM15.99 22.531c-3.631 0-6.572-2.936-6.572-6.561s2.941-6.561 6.572-6.561c3.628 0 6.572 2.936 6.572 6.561s-2.944 6.561-6.572 6.561zm6.833-11.835a1.53 1.53 0 1 1 0-3.06 1.53 1.53 0 1 1 0 3.06z"/><path d="M15.992 19.976a4.004 4.004 0 1 0 0-8.009 4.004 4.004 0 0 0 0 8.009z"/></symbol><symbol id="icon-youtube" viewBox="0 0 32 32"><path d="M24.24 6c-1.36-.08-4.16-.16-8.4-.16h-.56c-4.08 0-6.8.08-8.16.24-1.84.16-3.12.64-3.84 1.28-.64.56-1.12 1.6-1.28 2.96-.08.88-.16 2.72-.16 5.52v.4c0 2.64.08 4.48.24 5.36.24 1.28.64 2.24 1.44 2.8.8.64 2.16 1.04 4.08 1.2 1.36.08 4.16.16 8.4.16h.56c4.08 0 6.8-.08 8.16-.24 1.84-.16 3.12-.64 3.84-1.28.64-.56 1.12-1.6 1.28-2.96.08-.88.16-2.72.16-5.52v-.4c0-2.64-.08-4.48-.24-5.36-.24-1.28-.64-2.24-1.44-2.8-.8-.64-2.16-1.04-4.08-1.2zm-3.12 9.84-8.8 5.28V10.56l8.8 5.28z"/></symbol><symbol id="icon-burger" viewBox="0 0 32 32"><path fill="#77ac63" style="fill:var(--color9, #77ac63)" d="M2.667 7.993c0-.733.595-1.327 1.327-1.327h10.68a1.326 1.326 0 0 1 0 2.654H3.994a1.326 1.326 0 0 1-1.327-1.327zm0 8.007c0-.733.595-1.327 1.327-1.327h24.013a1.326 1.326 0 0 1 0 2.654H3.994A1.326 1.326 0 0 1 2.667 16zm1.326 6.68a1.326 1.326 0 0 0 0 2.654h16.013a1.326 1.326 0 0 0 0-2.654H3.993z"/></symbol><symbol id="icon-arrow" viewBox="0 0 34 32"><path fill="#fff" style="fill:var(--color5, #fff)" d="M34.231 4.741 29.49 0v23.704L5.786 0 2.23 3.556 25.934 27.26H2.23l4.741 4.741H34.23V4.742z"/></symbol><symbol id="icon-cart" viewBox="0 0 32 32"><path stroke-linejoin="round" stroke-linecap="round" stroke-width="3.2" d="M12 29.333a1.333 1.333 0 1 0 0-2.667 1.333 1.333 0 0 0 0 2.667zM26.667 29.333a1.333 1.333 0 1 0 0-2.667 1.333 1.333 0 0 0 0 2.667z"/><path stroke-linejoin="round" stroke-linecap="round" stroke-width="2.56" d="M1.333 1.333h5.333l3.573 17.853a2.671 2.671 0 0 0 2.666 2.147h12.96c.626.012 1.236-.196 1.723-.589s.821-.944.944-1.558l2.133-11.187H7.998"/></symbol><symbol id="icon-logo" viewBox="0 0 32 32"><path d="M29.082.314h-4.009c-1.237 0-2.24.983-2.24 2.195v3.929c0 1.212 1.003 2.195 2.24 2.195h4.009c1.237 0 2.24-.983 2.24-2.195V2.509c0-1.212-1.003-2.195-2.24-2.195zM6.73 23.04H2.412C1.08 23.04 0 24.023 0 25.235v3.929c0 1.213 1.08 2.195 2.412 2.195H6.73c1.332 0 2.412-.983 2.412-2.195v-3.929c0-1.212-1.08-2.195-2.412-2.195zM6.25 11.582H2.241c-1.237 0-2.24.983-2.24 2.195v3.929c0 1.212 1.003 2.195 2.24 2.195H6.25c1.237 0 2.24-.983 2.24-2.195v-3.929c0-1.212-1.003-2.195-2.24-2.195zM17.766 22.978h-4.009c-1.237 0-2.24.983-2.24 2.195v3.929c0 1.212 1.003 2.195 2.241 2.195h4.009c1.237 0 2.24-.983 2.24-2.195v-3.929c0-1.213-1.003-2.195-2.24-2.195zM6.25.086H2.241c-1.237 0-2.24.983-2.24 2.195V6.21c0 1.212 1.003 2.195 2.24 2.195H6.25c1.237 0 2.24-.983 2.24-2.195V2.281C8.49 1.069 7.487.086 6.25.086zM18.076 11.697h-4.009c-1.237 0-2.24.983-2.24 2.195v3.929c0 1.212 1.003 2.195 2.24 2.195h4.009c1.237 0 2.24-.983 2.24-2.195v-3.929c0-1.212-1.003-2.195-2.24-2.195zM29.333 22.978h-4.01c-1.237 0-2.24.983-2.24 2.195v3.929c0 1.212 1.003 2.195 2.24 2.195h4.009c1.237 0 2.24-.983 2.24-2.195v-3.929c0-1.213-1.003-2.195-2.24-2.195zM17.591.224h-4.009c-1.237 0-2.24.983-2.24 2.195v3.929c0 1.212 1.003 2.195 2.24 2.195h4.009c1.237 0 2.24-.984 2.24-2.196V2.418c0-1.212-1.003-2.195-2.24-2.195zM29.044 11.926h-4.01c-1.237 0-2.24.983-2.24 2.195v3.929c0 1.212 1.003 2.195 2.24 2.195h4.009c1.237 0 2.24-.983 2.24-2.195v-3.929c0-1.212-1.003-2.195-2.24-2.195z"/></symbol><symbol id="icon-close" viewBox="0 0 32 32"><path stroke-linejoin="round" stroke-linecap="round" stroke-width="2.667" d="M24 8 8 24M8 8l16 16"/></symbol></defs></svg>