<svg aria-hidden="true" style="position: absolute; width: 0; height: 0; overflow: hidden;" version="1.1" xmlns="http://www.w3.org/2000/svg" xmlns:xlink="http://www.w3.org/1999/xlink">
<defs>
<symbol id="icon-facebook" viewBox="0 0 32 32">
<path d="M19.52 4.64c0.24 0 0.48 0 0.96 0v3.6c-0.24 0-0.72 0-1.2 0s-0.96 0-1.2 0.24c-0.24 0.24-0.24 0.48-0.24 1.040 0 0.48 0 0.8 0 1.28h2.64v3.040h-2.64v13.2h-4.080v-13.28h-2.16v-3.040h2.16v-1.040c0-1.76 0.24-3.040 0.72-3.6 0.72-1.040 2.16-1.52 4.32-1.52 0.24 0.080 0.48 0.080 0.72 0.080z"></path>
</symbol>
<symbol id="icon-instagram" viewBox="0 0 32 32">
<path d="M28.717 10.756c-0.016-1.074-0.215-2.14-0.596-3.145-0.667-1.716-2.024-3.073-3.743-3.737-0.994-0.373-2.044-0.573-3.108-0.596-1.367-0.061-1.801-0.078-5.273-0.078s-3.916 0-5.274 0.078c-1.062 0.023-2.112 0.223-3.106 0.596-1.719 0.664-3.078 2.021-3.743 3.737-0.374 0.992-0.576 2.041-0.596 3.101-0.061 1.367-0.080 1.8-0.080 5.265s0 3.909 0.080 5.265c0.021 1.062 0.222 2.109 0.596 3.104 0.667 1.714 2.024 3.071 3.744 3.735 0.989 0.386 2.040 0.605 3.106 0.639 1.369 0.061 1.803 0.079 5.274 0.079s3.917 0 5.274-0.079c1.062-0.021 2.112-0.221 3.108-0.595 1.719-0.666 3.076-2.022 3.743-3.737 0.374-0.993 0.574-2.041 0.596-3.104 0.061-1.365 0.080-1.798 0.080-5.265-0.003-3.466-0.003-3.906-0.082-5.264zM15.99 22.531c-3.631 0-6.572-2.936-6.572-6.561s2.941-6.561 6.572-6.561c3.628 0 6.572 2.936 6.572 6.561s-2.944 6.561-6.572 6.561zM22.823 10.696c-0.849 0-1.532-0.684-1.532-1.53s0.684-1.53 1.532-1.53c0.846 0 1.531 0.684 1.531 1.53s-0.685 1.53-1.531 1.53z"></path>
<path d="M15.992 19.976c2.211 0 4.004-1.793 4.004-4.004s-1.793-4.004-4.004-4.004c-2.211 0-4.004 1.793-4.004 4.004s1.793 4.004 4.004 4.004z"></path>
</symbol>
<symbol id="icon-youtube" viewBox="0 0 32 32">
<path d="M24.24 6c-1.36-0.080-4.16-0.16-8.4-0.16h-0.56c-4.080 0-6.8 0.080-8.16 0.24-1.84 0.16-3.12 0.64-3.84 1.28-0.64 0.56-1.12 1.6-1.28 2.96-0.080 0.88-0.16 2.72-0.16 5.52v0.4c0 2.64 0.080 4.48 0.24 5.36 0.24 1.28 0.64 2.24 1.44 2.8 0.8 0.64 2.16 1.040 4.080 1.2 1.36 0.080 4.16 0.16 8.4 0.16h0.56c4.080 0 6.8-0.080 8.16-0.24 1.84-0.16 3.12-0.64 3.84-1.28 0.64-0.56 1.12-1.6 1.28-2.96 0.080-0.88 0.16-2.72 0.16-5.52v-0.4c0-2.64-0.080-4.48-0.24-5.36-0.24-1.28-0.64-2.24-1.44-2.8-0.8-0.64-2.16-1.040-4.080-1.2zM21.12 15.84l-8.8 5.28v-10.56l8.8 5.28z"></path>
</symbol>
<symbol id="icon-arrow" viewBox="0 0 34 32">
<path fill="#fff" style="fill: var(--color1, #fff)" d="M34.231 4.741l-4.741-4.741v23.704l-23.704-23.704-3.556 3.556 23.704 23.704h-23.704l4.741 4.741h27.259v-27.259z"></path>
</symbol>
<symbol id="icon-burger" viewBox="0 0 32 32">
<path fill="#77ac63" style="fill: var(--color2, #77ac63)" d="M2.667 7.993c0-0.733 0.595-1.327 1.327-1.327h10.68c0.352 0 0.689 0.14 0.938 0.389s0.389 0.586 0.389 0.938c0 0.352-0.14 0.689-0.389 0.938s-0.586 0.389-0.938 0.389h-10.68c-0.352 0-0.689-0.14-0.938-0.389s-0.389-0.586-0.389-0.938zM2.667 16c0-0.733 0.595-1.327 1.327-1.327h24.013c0.352 0 0.689 0.14 0.938 0.389s0.389 0.586 0.389 0.938c0 0.352-0.14 0.689-0.389 0.938s-0.586 0.389-0.938 0.389h-24.013c-0.352 0-0.689-0.14-0.938-0.389s-0.389-0.586-0.389-0.938zM3.993 22.68c-0.352 0-0.689 0.14-0.938 0.389s-0.389 0.586-0.389 0.938c0 0.352 0.14 0.689 0.389 0.938s0.586 0.389 0.938 0.389h16.013c0.352 0 0.689-0.14 0.938-0.389s0.389-0.586 0.389-0.938c0-0.352-0.14-0.689-0.389-0.938s-0.586-0.389-0.938-0.389h-16.013z"></path>
</symbol>
<symbol id="icon-cart" viewBox="0 0 32 32">
<path fill="#fff" style="fill: var(--color1, #fff); stroke: var(--color1, #fff)" stroke="#fff" stroke-linejoin="round" stroke-linecap="round" stroke-miterlimit="4" stroke-width="3.2" d="M12 29.333c0.736 0 1.333-0.597 1.333-1.333s-0.597-1.333-1.333-1.333-1.333 0.597-1.333 1.333c0 0.736 0.597 1.333 1.333 1.333z"></path>
<path fill="#fff" style="fill: var(--color1, #fff); stroke: var(--color1, #fff)" stroke="#fff" stroke-linejoin="round" stroke-linecap="round" stroke-miterlimit="4" stroke-width="3.2" d="M26.667 29.333c0.736 0 1.333-0.597 1.333-1.333s-0.597-1.333-1.333-1.333c-0.736 0-1.333 0.597-1.333 1.333s0.597 1.333 1.333 1.333z"></path>
<path fill="none" stroke="#fff" style="stroke: var(--color1, #fff)" stroke-linejoin="round" stroke-linecap="round" stroke-miterlimit="4" stroke-width="2.56" d="M1.333 1.333h5.333l3.573 17.853c0.122 0.614 0.456 1.165 0.943 1.558s1.098 0.601 1.723 0.589h12.96c0.626 0.012 1.236-0.196 1.723-0.589s0.821-0.944 0.944-1.558l2.133-11.187h-22.667"></path>
</symbol>
<symbol id="icon-checkbox" viewBox="0 0 32 32">
<path fill="#a1c487" style="fill: var(--color3, #a1c487)" d="M20.060 10.162c0.397-0.585 1.193-0.738 1.778-0.341s0.738 1.193 0.341 1.778l-6.942 10.24c-0.508 0.749-1.611 0.749-2.119 0l-3.298-4.864c-0.397-0.585-0.244-1.381 0.341-1.778s1.381-0.244 1.778 0.341l2.238 3.301 5.883-8.677z"></path>
<path fill="none" stroke="#a1c487" style="stroke: var(--color3, #a1c487)" stroke-linejoin="miter" stroke-linecap="butt" stroke-miterlimit="4" stroke-width="2.4" d="M6.4 1.2h19.2c2.872 0 5.2 2.328 5.2 5.2v19.2c0 2.872-2.328 5.2-5.2 5.2h-19.2c-2.872 0-5.2-2.328-5.2-5.2v-19.2c0-2.872 2.328-5.2 5.2-5.2z"></path>
</symbol>
<symbol id="icon-close" viewBox="0 0 32 32">
<path fill="none" stroke="#77ac63" style="stroke: var(--color2, #77ac63)" stroke-linejoin="round" stroke-linecap="round" stroke-miterlimit="4" stroke-width="2.6667" d="M24 8l-16 16"></path>
<path fill="none" stroke="#77ac63" style="stroke: var(--color2, #77ac63)" stroke-linejoin="round" stroke-linecap="round" stroke-miterlimit="4" stroke-width="2.6667" d="M8 8l16 16"></path>
</symbol>
<symbol id="icon-illustration" viewBox="0 0 55 32">
<path fill="#141414" style="fill: var(--color4, #141414)" d="M1.863 15.958h6.496v5.002h-6.496v-5.002z"></path>
<path fill="#a1c487" style="fill: var(--color3, #a1c487)" d="M0.744 15.959h5.942v5.002h-5.942v-5.002z"></path>
<path fill="#141414" style="fill: var(--color4, #141414)" d="M0.727 20.98h5.982v-5.042h-5.982v5.042zM6.665 20.94h-5.902v-4.962h5.902v4.962z"></path>
<path fill="#141414" style="fill: var(--color4, #141414)" d="M2.781 15.958v1.248l0.372-0.204 0.287 0.192 0.344-0.192 0.315 0.204v-1.248h-1.318z"></path>
<path fill="#141414" style="fill: var(--color4, #141414)" d="M4.099 18.413h1.37v0.080h-1.37v-0.080z"></path>
<path fill="#141414" style="fill: var(--color4, #141414)" d="M4.099 18.941h1.37v0.080h-1.37v-0.080z"></path>
<path fill="#141414" style="fill: var(--color4, #141414)" d="M4.099 19.469h1.37v0.080h-1.37v-0.080z"></path>
<path fill="#fefefe" style="fill: var(--color5, #fefefe)" d="M1.479 18.305h2.219v1.371h-2.219v-1.371z"></path>
<path fill="#141414" style="fill: var(--color4, #141414)" d="M1.459 19.693h2.26v-1.412h-2.26v1.412zM3.678 19.653h-2.179v-1.331h2.179v1.331z"></path>
<path fill="#f27b79" style="fill: var(--color6, #f27b79)" d="M8.181 21.876h-1.734c-0.081 0-0.162 0.036-0.21 0.1l-0.877 1.092c-0.141 0.176-0.016 0.432 0.21 0.432h2.611v-1.623z"></path>
<path fill="#141414" style="fill: var(--color4, #141414)" d="M5.57 23.519h2.631v-1.663h-1.754c-0.089 0-0.174 0.040-0.226 0.108l-0.877 1.092c-0.069 0.088-0.085 0.204-0.032 0.304 0.044 0.096 0.146 0.16 0.259 0.16zM8.161 23.479h-2.591c-0.097 0-0.182-0.052-0.226-0.14-0.040-0.088-0.032-0.188 0.028-0.26l0.877-1.092c0.048-0.060 0.117-0.092 0.194-0.092h1.714v1.583h0.004z"></path>
<path fill="#141414" style="fill: var(--color4, #141414)" d="M25.849 15.015c0 0.148-0.121 0.264-0.267 0.264h-0.873c-0.149 0-0.267-0.12-0.267-0.264 0-0.148 0.121-0.264 0.267-0.264h0.873c0.145-0.004 0.267 0.116 0.267 0.264z"></path>
<path fill="#141414" style="fill: var(--color4, #141414)" d="M22.555 15.326h1.075v1.507h-1.075v-1.507z"></path>
<path fill="#a1c487" style="fill: var(--color3, #a1c487)" d="M25.324 26.506v-8.812c0-0.748-0.614-1.355-1.37-1.355h-3.961c-0.756 0-1.37 0.608-1.37 1.355v8.117c0 0.688-0.562 1.244-1.257 1.244h-1.112c-0.695 0-1.257-0.556-1.257-1.244v-3.547c0 0 0.028-1.071 0.695-1.228h-6.847c0 0-2.846 2.295-3.444 5.994v0.408h19.924v-0.932z"></path>
<path fill="#141414" style="fill: var(--color4, #141414)" d="M5.38 27.458h19.964v-9.764c0-0.76-0.622-1.375-1.39-1.375h-3.961c-0.768 0-1.39 0.616-1.39 1.375v8.117c0 0.676-0.554 1.223-1.237 1.223h-1.112c-0.683 0-1.237-0.548-1.237-1.223v-3.547c0-0.012 0.032-1.055 0.683-1.207l0.17-0.040-7.033 0.004c-0.008 0.004-0.724 0.588-1.5 1.611-0.719 0.948-1.641 2.479-1.948 4.394l-0.008 0.432zM25.303 27.418h-19.883v-0.388c0.307-1.903 1.225-3.431 1.94-4.37 0.74-0.976 1.423-1.547 1.492-1.603h6.718c-0.562 0.244-0.59 1.164-0.594 1.207v3.547c0 0.696 0.574 1.263 1.277 1.263h1.112c0.703 0 1.277-0.568 1.277-1.263v-8.117c0-0.736 0.606-1.335 1.35-1.335h3.961c0.744 0 1.35 0.6 1.35 1.335v9.724z"></path>
<path fill="#141414" style="fill: var(--color4, #141414)" d="M22.624 16.334h0.485v8.86h-0.485v-8.86z"></path>
<path fill="#141414" style="fill: var(--color4, #141414)" d="M0 20.82h9.248v0.456h-9.248v-0.456z"></path>
<path fill="#141414" style="fill: var(--color4, #141414)" d="M10.392 27.462h6.427v1.308h-6.427v-1.308z"></path>
<path fill="#141414" style="fill: var(--color4, #141414)" d="M8.076 31.344c-1.616 0-2.926-1.473-2.926-3.291s1.31-3.291 2.926-3.291 2.927 1.473 2.927 3.291c0 1.817-1.31 3.291-2.927 3.291z"></path>
<path fill="#fefefe" style="fill: var(--color5, #fefefe)" d="M7.583 30.048c-1.051 0-1.904-0.96-1.904-2.143s0.852-2.143 1.904-2.143 1.904 0.96 1.904 2.143c0 1.184-0.852 2.143-1.904 2.143z"></path>
<path fill="#141414" style="fill: var(--color4, #141414)" d="M7.583 30.069c1.063 0 1.924-0.972 1.924-2.163s-0.865-2.163-1.924-2.163c-1.059 0-1.924 0.972-1.924 2.163s0.861 2.163 1.924 2.163zM7.583 25.782c1.039 0 1.884 0.952 1.884 2.123s-0.845 2.123-1.884 2.123c-1.039 0-1.884-0.952-1.884-2.123s0.845-2.123 1.884-2.123z"></path>
<path fill="#141414" style="fill: var(--color4, #141414)" d="M8.589 27.917c0 0.476-0.226 0.9-0.95 0.9-0.424 0-0.582-0.424-0.582-0.9s0.162-0.864 0.582-0.864c0.724 0 0.95 0.384 0.95 0.864z"></path>
<path fill="#fefefe" style="fill: var(--color5, #fefefe)" d="M7.591 28.781c-0.424 0-0.768-0.387-0.768-0.864s0.344-0.864 0.768-0.864c0.424 0 0.768 0.387 0.768 0.864s-0.344 0.864-0.768 0.864z"></path>
<path fill="#141414" style="fill: var(--color4, #141414)" d="M7.591 28.797c0.433 0 0.788-0.396 0.788-0.884s-0.352-0.884-0.788-0.884c-0.437 0-0.788 0.396-0.788 0.884s0.356 0.884 0.788 0.884zM7.591 27.074c0.412 0 0.748 0.38 0.748 0.844s-0.335 0.844-0.748 0.844c-0.412 0-0.748-0.38-0.748-0.844s0.335-0.844 0.748-0.844z"></path>
<path fill="#141414" style="fill: var(--color4, #141414)" d="M24.564 31.344c-1.616 0-2.927-1.473-2.927-3.291s1.31-3.291 2.927-3.291 2.927 1.473 2.927 3.291c0 1.817-1.31 3.291-2.927 3.291z"></path>
<path fill="#fefefe" style="fill: var(--color5, #fefefe)" d="M24.071 30.048c-1.051 0-1.904-0.96-1.904-2.143s0.852-2.143 1.904-2.143c1.052 0 1.904 0.96 1.904 2.143s-0.852 2.143-1.904 2.143z"></path>
<path fill="#141414" style="fill: var(--color4, #141414)" d="M24.071 30.069c1.063 0 1.924-0.972 1.924-2.163s-0.865-2.163-1.924-2.163c-1.059 0-1.924 0.972-1.924 2.163s0.861 2.163 1.924 2.163zM24.071 25.782c1.039 0 1.884 0.952 1.884 2.123s-0.845 2.123-1.884 2.123c-1.039 0-1.884-0.952-1.884-2.123s0.845-2.123 1.884-2.123z"></path>
<path fill="#141414" style="fill: var(--color4, #141414)" d="M25.077 27.917c0 0.476-0.226 0.864-0.95 0.864-0.424 0-0.582-0.388-0.582-0.864s0.162-0.864 0.582-0.864c0.724 0 0.95 0.384 0.95 0.864z"></path>
<path fill="#fefefe" style="fill: var(--color5, #fefefe)" d="M24.079 28.781c-0.424 0-0.768-0.387-0.768-0.864s0.344-0.864 0.768-0.864c0.424 0 0.768 0.387 0.768 0.864s-0.344 0.864-0.768 0.864z"></path>
<path fill="#141414" style="fill: var(--color4, #141414)" d="M24.079 28.797c0.433 0 0.788-0.396 0.788-0.884s-0.352-0.884-0.788-0.884c-0.436 0-0.788 0.396-0.788 0.884s0.356 0.884 0.788 0.884zM24.079 27.074c0.412 0 0.748 0.38 0.748 0.844s-0.336 0.844-0.748 0.844c-0.412 0-0.748-0.38-0.748-0.844s0.34-0.844 0.748-0.844z"></path>
<path fill="#141414" style="fill: var(--color4, #141414)" d="M2.696 27.042h0.372c0.049-0.38 0.376-0.672 0.772-0.672h8.262v1.543h-8.262c-0.376 0-0.691-0.264-0.764-0.616h-0.38v-0.256z"></path>
<path fill="#a1c487" style="fill: var(--color3, #a1c487)" d="M4.163 27.437c0 0-0.513-4.070 4.293-5.178 1.734-0.4 5.716-0.66 4.822 5.178h-9.115z"></path>
<path fill="#141414" style="fill: var(--color4, #141414)" d="M4.143 27.458h9.147l0.004-0.016c0.331-2.171 0.020-3.714-0.926-4.578-1.156-1.060-2.955-0.844-3.921-0.62-1.099 0.252-2.009 0.684-2.708 1.279-0.558 0.476-0.982 1.060-1.257 1.735-0.469 1.148-0.348 2.171-0.344 2.183l0.004 0.016zM13.258 27.418h-9.079c-0.012-0.14-0.089-1.092 0.344-2.147 0.428-1.047 1.459-2.419 3.933-2.991 0.958-0.22 2.741-0.436 3.884 0.612 0.938 0.856 1.245 2.379 0.918 4.526z"></path>
<path fill="#141414" style="fill: var(--color4, #141414)" d="M15.239 21.276h-6.027c-0.627 0-1.136-0.504-1.136-1.124 0-0.656 0.566-1.172 1.225-1.119l6.007 0.472c0.465 0.036 0.825 0.42 0.825 0.884 0 0.488-0.4 0.888-0.893 0.888z"></path>
<path fill="#a1c487" style="fill: var(--color3, #a1c487)" d="M21.415 26.986h6.888c0 0-0.113-1.004-0.796-1.915-1.495-1.979-4.604-1.707-5.703 0.508-0.198 0.392-0.335 0.856-0.388 1.407z"></path>
<path fill="#141414" style="fill: var(--color4, #141414)" d="M21.391 27.006h6.932l-0.004-0.024c0-0.012-0.121-1.020-0.8-1.923-0.707-0.94-1.839-1.436-3.028-1.327-1.18 0.108-2.191 0.796-2.712 1.839-0.206 0.42-0.34 0.892-0.388 1.412v0.024zM28.279 26.966h-6.839c0.049-0.504 0.178-0.968 0.38-1.375 0.513-1.032 1.512-1.711 2.68-1.815 1.172-0.108 2.292 0.384 2.991 1.311 0.614 0.82 0.764 1.727 0.788 1.879z"></path>
<path fill="#141414" style="fill: var(--color4, #141414)" d="M4.115 27.701h17.717v-0.528h6.463v-0.48h-6.475c-0.263 0-0.473 0.212-0.473 0.468v0.060h-17.232v0.48z"></path>
<path fill="#141414" style="fill: var(--color4, #141414)" d="M16.544 30.288h1.184v-0.48h-1.019l-2.28-1.719-0.291 0.38 2.405 1.819z"></path>
<path fill="#a1c487" style="fill: var(--color3, #a1c487)" d="M22.518 15.826h1.476c0.089 0 0.178-0.012 0.259-0.032 0.469-0.116 0.817-0.536 0.817-1.036 0-0.296-0.121-0.56-0.315-0.752-0.137-0.136-0.307-0.232-0.501-0.28-0.085-0.020-0.17-0.032-0.263-0.032h-0.214c-0.74 0-1.447 0.364-1.831 0.992-0.020 0.032-0.040 0.068-0.060 0.104-0.247 0.472 0.097 1.036 0.634 1.036z"></path>
<path fill="#141414" style="fill: var(--color4, #141414)" d="M22.518 15.846h1.475c0.089 0 0.178-0.012 0.267-0.032 0.489-0.12 0.833-0.552 0.833-1.056 0-0.292-0.113-0.564-0.323-0.768-0.142-0.14-0.319-0.24-0.509-0.288-0.089-0.020-0.178-0.032-0.267-0.032h-0.214c-0.76 0-1.467 0.384-1.847 1.004-0.020 0.036-0.041 0.068-0.061 0.104-0.121 0.224-0.117 0.492 0.016 0.712 0.137 0.224 0.372 0.356 0.631 0.356zM23.994 13.715c0.085 0 0.174 0.012 0.255 0.032 0.186 0.044 0.356 0.14 0.493 0.276 0.198 0.196 0.311 0.46 0.311 0.74 0 0.484-0.331 0.9-0.8 1.016-0.085 0.020-0.17 0.032-0.255 0.032h-1.475c-0.247 0-0.469-0.124-0.594-0.336-0.125-0.208-0.133-0.46-0.016-0.672 0.020-0.036 0.040-0.068 0.061-0.104 0.372-0.608 1.067-0.984 1.811-0.984h0.21z"></path>
<path fill="#141414" style="fill: var(--color4, #141414)" d="M23.513 14.763c0 0.424 0.186 0.804 0.481 1.068h0.004c0.594 0 1.079-0.476 1.079-1.068 0-0.296-0.121-0.56-0.315-0.752s-0.465-0.312-0.76-0.312h-0.004c-0.303 0.26-0.485 0.64-0.485 1.064z"></path>
<path fill="#fefefe" style="fill: var(--color5, #fefefe)" d="M23.808 14.763c0 0.408 0.17 0.772 0.445 1.036 0.469-0.116 0.817-0.536 0.817-1.036 0-0.296-0.121-0.56-0.315-0.752-0.137-0.136-0.307-0.232-0.501-0.28-0.275 0.256-0.445 0.624-0.445 1.032z"></path>
<path fill="#141414" style="fill: var(--color4, #141414)" d="M24.249 15.818l0.012-0.004c0.489-0.12 0.833-0.552 0.833-1.056 0-0.292-0.113-0.564-0.323-0.768-0.141-0.14-0.319-0.24-0.509-0.288l-0.012-0.004-0.008 0.008c-0.291 0.276-0.453 0.648-0.453 1.048s0.162 0.772 0.453 1.048l0.008 0.016zM24.261 13.751c0.182 0.048 0.348 0.14 0.481 0.272 0.198 0.196 0.311 0.46 0.311 0.74 0 0.48-0.323 0.892-0.792 1.012-0.279-0.268-0.433-0.628-0.433-1.012 0-0.388 0.154-0.744 0.433-1.012z"></path>
<path fill="#a1c487" style="fill: var(--color3, #a1c487)" d="M21.068 14.855h0.796v0.324h-0.796v-0.324z"></path>
<path fill="#141414" style="fill: var(--color4, #141414)" d="M21.051 15.203h0.837v-0.364h-0.837v0.364zM21.844 15.163h-0.756v-0.284h0.756v0.284z"></path>
<path fill="#141414" style="fill: var(--color4, #141414)" d="M22.163 14.747h-0.319c-0.15 0-0.267 0.12-0.267 0.264 0 0.148 0.121 0.264 0.267 0.264h0.319c0.15 0 0.267-0.12 0.267-0.264s-0.117-0.264-0.267-0.264z"></path>
<path fill="#141414" style="fill: var(--color4, #141414)" d="M21.221 15.015c0 0.148-0.121 0.264-0.267 0.264h-0.873c-0.15 0-0.267-0.12-0.267-0.264 0-0.148 0.121-0.264 0.267-0.264h0.873c0.145-0.004 0.267 0.116 0.267 0.264z"></path>
<path fill="#fff" style="fill: var(--color1, #fff)" d="M6.795 26.414h3.945v0.224h-3.945v-0.224z"></path>
<path fill="#141414" style="fill: var(--color4, #141414)" d="M6.774 26.658h3.986v-0.264h-3.986v0.264zM10.72 26.618h-3.905v-0.184h3.905v0.184z"></path>
<path fill="#fff" style="fill: var(--color1, #fff)" d="M6.795 25.823h3.945v0.224h-3.945v-0.224z"></path>
<path fill="#141414" style="fill: var(--color4, #141414)" d="M6.774 26.066h3.986v-0.264h-3.986v0.264zM10.72 26.026h-3.905v-0.184h3.905v0.184z"></path>
<path fill="#fff" style="fill: var(--color1, #fff)" d="M6.795 25.234h3.945v0.224h-3.945v-0.224z"></path>
<path fill="#141414" style="fill: var(--color4, #141414)" d="M6.774 25.479h3.986v-0.264h-3.986v0.264zM10.72 25.439h-3.905v-0.184h3.905v0.184z"></path>
<path fill="#141414" style="fill: var(--color4, #141414)" d="M12.801 30.284h8.286v0.080h-8.286v-0.080z"></path>
<path fill="#141414" style="fill: var(--color4, #141414)" d="M28.942 31.938h25.942v0.062h-25.942v-0.062z"></path>
<path fill="#141414" style="fill: var(--color4, #141414)" d="M34.852 31.929h3.161c0 0-0.199-0.673-1.6-1.226l0.004-0.154 0.013-0.836h-1.496l-0.026 0.738-0.056 1.479z"></path>
<path fill="#141414" style="fill: var(--color4, #141414)" d="M34.826 31.951h3.213l-0.009-0.026c-0.009-0.026-0.217-0.686-1.6-1.235l0.013-0.995h-1.539l-0.078 2.256zM37.983 31.908h-3.109l0.078-2.174h1.452l-0.013 0.982 0.013 0.004c1.214 0.485 1.522 1.059 1.578 1.188z"></path>
<path fill="#141414" style="fill: var(--color4, #141414)" d="M30.733 31.929h3.161c0 0-0.199-0.673-1.6-1.226l0.013-0.103 0.121-0.888h-1.496l-0.069 0.772-0.13 1.445z"></path>
<path fill="#141414" style="fill: var(--color4, #141414)" d="M30.707 31.951h3.217l-0.009-0.026c-0.009-0.026-0.217-0.686-1.6-1.235l0.134-0.999h-1.539l-0.204 2.26zM33.864 31.908h-3.109l0.195-2.174h1.452l-0.134 0.982 0.017 0.004c1.218 0.485 1.522 1.059 1.578 1.188z"></path>
<path fill="#141414" style="fill: var(--color4, #141414)" d="M49.403 31.929h3.161l-0.204-1.565-0.082-0.652h-1.496l0.178 0.802 0.043 0.36c-1.47 0.446-1.6 1.055-1.6 1.055z"></path>
<path fill="#141414" style="fill: var(--color4, #141414)" d="M49.377 31.951h3.213l-0.291-2.26h-1.543l0.186 0.828 0.039 0.339c-1.448 0.442-1.596 1.042-1.6 1.068l-0.004 0.026zM52.542 31.908h-3.109c0.048-0.12 0.312-0.631 1.578-1.012l0.017-0.004-0.043-0.378-0.173-0.776h1.448l0.282 2.17z"></path>
<path fill="#141414" style="fill: var(--color4, #141414)" d="M45.761 31.929h3.161l-0.078-1.54-0.035-0.678h-1.496l0.039 0.823 0.009 0.292c-1.401 0.558-1.6 1.102-1.6 1.102z"></path>
<path fill="#141414" style="fill: var(--color4, #141414)" d="M45.73 31.951h3.217l-0.117-2.26h-1.539l0.043 0.849 0.009 0.279c-1.383 0.549-1.591 1.085-1.6 1.106l-0.013 0.026zM48.9 31.908h-3.104c0.065-0.12 0.386-0.588 1.574-1.059l0.013-0.004-0.009-0.309-0.039-0.802h1.452l0.113 2.174z"></path>
<path fill="#ffac71" style="fill: var(--color7, #ffac71)" d="M37.337 1.205l-2.198-0.489-0.238 0.828c-0.061-0.043-0.121-0.069-0.178-0.069-0.26 0-0.312 0.309-0.312 0.309-0.074 0.335 0.148 0.54 0.247 0.686l-0.754 2.389 1.869 0.287 0.16-1.527c1.609 0.802 1.405-2.415 1.405-2.415z"></path>
<path fill="#141414" style="fill: var(--color4, #141414)" d="M35.793 5.164l0.16-1.518c0.316 0.15 0.59 0.159 0.806 0.017 0.72-0.472 0.607-2.38 0.603-2.462v-0.017l-2.237-0.498-0.234 0.815c-0.056-0.039-0.113-0.056-0.165-0.056-0.273 0-0.334 0.322-0.334 0.326-0.065 0.292 0.087 0.485 0.195 0.626 0.017 0.021 0.035 0.043 0.048 0.064l-0.759 2.402 1.916 0.3zM35.914 3.581l-0.16 1.535-1.821-0.283 0.75-2.372-0.004-0.009c-0.017-0.021-0.035-0.047-0.056-0.073-0.104-0.137-0.247-0.322-0.187-0.592 0.004-0.013 0.052-0.292 0.291-0.292 0.052 0 0.108 0.021 0.165 0.064l0.026 0.017 0.243-0.836 2.164 0.48c0.009 0.189 0.082 1.973-0.585 2.406-0.208 0.137-0.477 0.124-0.789-0.030l-0.035-0.017z"></path>
<path fill="#141414" style="fill: var(--color4, #141414)" d="M37.995 0.27c-0.1-0.021-0.351 0-0.503 0.124 0.009-0.017 0.017-0.034 0.026-0.051 0.225-0.669-0.724-0.172-1.227-0.073-0.104 0.021-0.334 0.051-0.334 0.051-1.505-0.339-1.353 1.179-1.353 1.179 0.394-0.056 0.512 0.476 0.512 0.476 0.403-0.189 0.529-0.459 0.542-0.575 0.39 0.176 1.392 0.51 2.22-0.081 0.568-0.407 0.369-1.004 0.117-1.051z"></path>
<path fill="#141414" style="fill: var(--color4, #141414)" d="M46.727 6.631c0 0 0.611-1.128 0.663-1.69l-0.256-1.235c0 0-0.031-1.184 1.543-0.896 0 0-0.009-0.558 0.364-0.69 0 0-0.182 0.313-0.117 0.622 0 0 0.303-0.686 0.876-0.326 0 0 0.442 0.24 0.325 0.678 0 0 0.009 0.498-0.681 0.506 0 0 0.009 0.622 1.53 1.467 0 0 1.266 0.6 1.162 1.908s-1.283 2.131-1.283 2.131l-4.336 0.004 0.208-2.479z"></path>
<path fill="#ffac71" style="fill: var(--color7, #ffac71)" d="M49.134 7.111l-0.186-2.157c0 0 0.325-0.189 0.243-0.558 0 0-0.078-0.296-0.377-0.069l-0.009-0.523c0 0-1.049 0.39-1.661-0.197 0 0-0.442 2.041 0.49 2.037l-0.199 1.715 1.7-0.249z"></path>
<path fill="#141414" style="fill: var(--color4, #141414)" d="M47.412 7.386l1.747-0.253-0.186-2.166c0.061-0.039 0.316-0.232 0.243-0.575 0-0.004-0.035-0.129-0.139-0.163-0.069-0.021-0.147-0.004-0.239 0.056l-0.009-0.51-0.030 0.009c-0.009 0.004-1.041 0.377-1.639-0.193l-0.026-0.026-0.009 0.039c-0.013 0.056-0.295 1.385 0.113 1.878 0.095 0.116 0.221 0.176 0.373 0.18l-0.199 1.724zM49.112 7.094l-1.647 0.24 0.199-1.711h-0.026c-0.152 0-0.273-0.056-0.364-0.167-0.356-0.433-0.152-1.583-0.108-1.806 0.559 0.498 1.452 0.24 1.626 0.184l0.009 0.536 0.035-0.026c0.091-0.069 0.169-0.094 0.23-0.073 0.082 0.026 0.113 0.133 0.113 0.133 0.078 0.352-0.221 0.528-0.234 0.536l-0.013 0.009v0.013l0.182 2.131z"></path>
<path fill="#141414" style="fill: var(--color4, #141414)" d="M34.904 30.454l1.509 0.094 0.013-0.836h-1.496l-0.026 0.742z"></path>
<path fill="#141414" style="fill: var(--color4, #141414)" d="M30.863 30.484l1.444 0.116 0.121-0.888h-1.496l-0.069 0.772z"></path>
<path fill="#cdcbcc" style="fill: var(--color8, #cdcbcc)" d="M33.018 12.455l0.061 0.326 0.369 2.011 0.954 5.172 0.056 1.707 0.291 8.552h2.523l0.282-10.207-0.399-5.691-0.135-1.87h-4.002z"></path>
<path fill="#141414" style="fill: var(--color4, #141414)" d="M34.726 30.244h2.567v-0.021l0.282-10.207-0.533-7.582h-4.050l1.387 7.535 0.347 10.276zM37.25 30.201h-2.484l-0.347-10.237-1.379-7.488h3.954l0.538 7.544-0.282 10.181z"></path>
<path fill="#141414" style="fill: var(--color4, #141414)" d="M50.781 29.712l0.182 0.802 1.4-0.15-0.087-0.652h-1.496z"></path>
<path fill="#141414" style="fill: var(--color4, #141414)" d="M47.313 29.712l0.039 0.828 1.492-0.15-0.035-0.678h-1.496z"></path>
<path fill="#cdcbcc" style="fill: var(--color8, #cdcbcc)" d="M30.452 30.266h2.549l1.457-8.595 0.325-1.926 0.555-4.966 0.221-1.999h-4.14l0.017 1.578 0.061 5.207-1.045 10.7z"></path>
<path fill="#141414" style="fill: var(--color4, #141414)" d="M30.43 30.287h2.593l0.004-0.017 1.782-10.52 0.78-6.991h-4.188l0.078 6.806-1.049 10.722zM32.984 30.244h-2.506l1.041-10.675-0.078-6.768h4.097l-0.776 6.939-1.778 10.503z"></path>
<path fill="#141414" style="fill: var(--color4, #141414)" d="M46.107 18.707l0.668 11.515h2.306l-0.078-7.299-0.048-4.164 0.334-3.86 0.13-1.54-1.934-0.030-1.092-0.021-0.091 1.728-0.195 3.671z"></path>
<path fill="#141414" style="fill: var(--color4, #141414)" d="M46.758 30.244h2.346v-0.021l-0.126-11.464 0.468-5.421-3.070-0.051-0.29 5.421 0.672 11.537zM49.060 30.201h-2.263l-0.668-11.494 0.286-5.378 2.983 0.051-0.464 5.378 0.126 11.442z"></path>
<path fill="#141414" style="fill: var(--color4, #141414)" d="M31.418 12.781l0.017 1.578c0.72 0.236 1.396 0.373 2.012 0.433 0.707 0.073 1.344 0.051 1.89-0.017 0.82-0.099 1.444-0.304 1.812-0.455l-0.13-1.87h-4.002l0.061 0.326h-1.66v0.004z"></path>
<path fill="#141414" style="fill: var(--color4, #141414)" d="M47.46 13.149l0.026 0.18 0.247 1.78 0.655 4.692 0.616 3.122 1.422 7.231 2.111 0.043-0.971-10.623-0.269-5.55-0.048-0.978-3.789 0.103z"></path>
<path fill="#141414" style="fill: var(--color4, #141414)" d="M52.563 30.219v-0.026l-0.971-10.623-0.321-6.549-3.833 0.103 0.928 6.682 2.042 10.37 2.155 0.043zM51.228 13.068l0.316 6.506 0.971 10.597-2.072-0.043-2.033-10.336-0.923-6.626 3.742-0.099z"></path>
<path fill="#cdcbcc" style="fill: var(--color8, #cdcbcc)" d="M46.576 6.939l-1.682 2.166-2.35 0.455v1.673l2.753-0.257c0.191-0.017 0.369-0.086 0.525-0.193l1.101-0.772-0.347-3.071z"></path>
<path fill="#141414" style="fill: var(--color4, #141414)" d="M42.522 11.258l2.779-0.262c0.191-0.017 0.377-0.086 0.538-0.197l1.114-0.781-0.356-3.135-1.713 2.2-2.359 0.459v1.715h-0.004zM46.905 10.001l-1.092 0.768c-0.152 0.107-0.33 0.172-0.516 0.189l-2.732 0.257v-1.634l2.341-0.455 0.004-0.004 1.652-2.123 0.343 3.002z"></path>
<path fill="#a1c487" style="fill: var(--color3, #a1c487)" d="M35.88 4.598c0 0-0.325 0.759-1.786-0.738l-2.506 0.913c-0.356 0.154-0.607 0.476-0.672 0.853l-0.395 2.204h1.37l-0.633 5.893c0 0 1.847 0.485 3.26 0.515 2.333 0.051 2.849-0.36 2.849-0.36l-0.104-2.093-0.017-4.76c0.026-0.678-0.26-1.188-0.668-1.737l-0.698-0.69z"></path>
<path fill="#141414" style="fill: var(--color4, #141414)" d="M34.908 14.265c1.981 0 2.45-0.356 2.467-0.369l0.009-0.009-0.104-2.106-0.017-4.76c0.026-0.665-0.251-1.184-0.672-1.75l-0.72-0.712-0.013 0.030c-0.004 0.004-0.065 0.137-0.247 0.172-0.238 0.043-0.689-0.082-1.504-0.918l-0.009-0.009-0.013 0.004-2.506 0.913c-0.364 0.159-0.62 0.485-0.685 0.871l-0.399 2.23h1.37l-0.633 5.888 0.017 0.004c0.017 0.004 1.864 0.485 3.265 0.519 0.134 0 0.269 0 0.394 0zM37.341 13.866c-0.078 0.051-0.69 0.399-2.827 0.352-1.318-0.030-3.039-0.463-3.234-0.51l0.633-5.901h-1.366l0.39-2.179c0.065-0.373 0.308-0.686 0.659-0.836l2.493-0.905c0.824 0.841 1.292 0.965 1.535 0.918 0.156-0.030 0.234-0.124 0.265-0.172l0.676 0.665c0.425 0.575 0.685 1.068 0.659 1.724l0.017 4.76 0.1 2.084z"></path>
<path fill="#141414" style="fill: var(--color4, #141414)" d="M37.375 6.811h6.915v5.327h-6.915v-5.327z"></path>
<path fill="#fefefe" style="fill: var(--color5, #fefefe)" d="M36.183 6.811h6.326v5.327h-6.326v-5.327z"></path>
<path fill="#141414" style="fill: var(--color4, #141414)" d="M36.161 12.158h6.369v-5.369h-6.369v5.369zM42.487 12.115h-6.282v-5.284h6.282v5.284z"></path>
<path fill="#141414" style="fill: var(--color4, #141414)" d="M38.351 6.811v1.33l0.395-0.214 0.303 0.202 0.364-0.202 0.338 0.214v-1.33h-1.401z"></path>
<path fill="#141414" style="fill: var(--color4, #141414)" d="M39.747 9.427h1.461v0.086h-1.461v-0.086z"></path>
<path fill="#141414" style="fill: var(--color4, #141414)" d="M39.747 9.989h1.461v0.086h-1.461v-0.086z"></path>
<path fill="#141414" style="fill: var(--color4, #141414)" d="M39.747 10.55h1.461v0.086h-1.461v-0.086z"></path>
<path fill="#fefefe" style="fill: var(--color5, #fefefe)" d="M36.964 9.311h2.363v1.458h-2.363v-1.458z"></path>
<path fill="#141414" style="fill: var(--color4, #141414)" d="M36.942 10.79h2.406v-1.501h-2.406v1.501zM39.305 10.748h-2.32v-1.415h2.32v1.415z"></path>
<path fill="#141414" style="fill: var(--color4, #141414)" d="M46.303 15.036c0.364 0.051 0.863 0.094 1.431 0.073 0.477-0.017 1.006-0.077 1.552-0.21 0.663-0.163 1.353-0.437 2.007-0.875l-0.048-0.978-3.785 0.103 0.026 0.18-1.092-0.017-0.091 1.724z"></path>
<path fill="#e78d4c" style="fill: var(--color9, #e78d4c)" d="M42.522 12.313c0.039 0.064 0.091 0.116 0.152 0.159s0.13 0.073 0.204 0.086l0.343 0.077c0.221 0.047 0.447 0.073 0.672 0.073h0.299c0.087 0 0.173-0.021 0.247-0.064l0.321-0.176 0.338-0.039 1.257-0.15v-0.956l-1.058 0.163-0.49 0.077-1.062-0.292c0 0-0.186 0.382 0.394 0.575l-0.564 0.274h-0.945c-0.1-0.009-0.165 0.107-0.108 0.193z"></path>
<path fill="#141414" style="fill: var(--color4, #141414)" d="M43.896 12.725h0.299c0.091 0 0.182-0.021 0.26-0.069l0.316-0.172 1.609-0.193v-0.999l-1.569 0.244-1.075-0.296-0.009 0.017c-0.004 0.004-0.069 0.142 0 0.296 0.052 0.124 0.173 0.223 0.36 0.292l-0.512 0.249h-0.941c-0.056 0-0.108 0.030-0.134 0.077s-0.026 0.107 0.004 0.154c0.043 0.064 0.095 0.12 0.156 0.163 0.065 0.043 0.134 0.073 0.208 0.090l0.343 0.077c0.23 0.047 0.455 0.069 0.685 0.069zM46.337 12.258l-1.583 0.189-0.321 0.176c-0.074 0.039-0.156 0.060-0.238 0.060h-0.299c-0.225 0-0.451-0.026-0.668-0.073l-0.343-0.077c-0.069-0.017-0.134-0.043-0.195-0.086-0.056-0.039-0.108-0.090-0.147-0.15-0.022-0.034-0.022-0.077-0.004-0.111s0.056-0.056 0.095-0.056h0.95l0.616-0.3-0.052-0.017c-0.199-0.064-0.33-0.163-0.381-0.283-0.048-0.107-0.022-0.206-0.004-0.244l1.049 0.287 1.526-0.236v0.922z"></path>
<path fill="#141414" style="fill: var(--color4, #141414)" d="M38.273 3.534h4.288v3.302h-4.288v-3.302z"></path>
<path fill="#a1c487" style="fill: var(--color3, #a1c487)" d="M37.536 3.534h3.919v3.302h-3.919v-3.302z"></path>
<path fill="#141414" style="fill: var(--color4, #141414)" d="M37.514 6.858h3.963v-3.345h-3.963v3.345zM41.434 6.815h-3.876v-3.259h3.876v3.259z"></path>
<path fill="#141414" style="fill: var(--color4, #141414)" d="M38.876 3.534v0.823l0.247-0.133 0.191 0.124 0.225-0.124 0.208 0.133v-0.823h-0.871z"></path>
<path fill="#141414" style="fill: var(--color4, #141414)" d="M39.743 5.139h0.906v0.086h-0.906v-0.086z"></path>
<path fill="#141414" style="fill: var(--color4, #141414)" d="M39.743 5.485h0.906v0.086h-0.906v-0.086z"></path>
<path fill="#141414" style="fill: var(--color4, #141414)" d="M39.743 5.837h0.906v0.086h-0.906v-0.086z"></path>
<path fill="#fefefe" style="fill: var(--color5, #fefefe)" d="M38.017 5.082h1.465v0.905h-1.465v-0.905z"></path>
<path fill="#141414" style="fill: var(--color4, #141414)" d="M37.995 6.009h1.509v-0.948h-1.509v0.948zM39.461 5.966h-1.422v-0.862h1.422v0.862z"></path>
<path fill="#141414" style="fill: var(--color4, #141414)" d="M45.102 12.425l1.257-0.15v-0.956l-1.058 0.163-0.199 0.944z"></path>
<path fill="#cdcbcc" style="fill: var(--color8, #cdcbcc)" d="M45.483 11.387l0.794-0.15 0.13-3.851c0.009-0.244 0.121-0.476 0.312-0.635l0.811-0.669c0 0 0.156 0.982 1.669 0l1.4 0.497c0.395 0.142 0.694 0.472 0.789 0.875l0.885 4.25c0.082 0.395-0.212 0.768-0.62 0.781l-0.42 0.013 0.204 1.355c0 0-1.444 0.613-2.926 0.703-1.708 0.107-2.268-0.296-2.246-0.352l0.087-1.441-0.867 0.034v-1.411z"></path>
<path fill="#141414" style="fill: var(--color4, #141414)" d="M47.954 14.603c0.169 0 0.356-0.004 0.555-0.017 1.47-0.090 2.918-0.699 2.935-0.708l0.017-0.009-0.004-0.017-0.199-1.329 0.399-0.013c0.199-0.009 0.386-0.099 0.512-0.257 0.126-0.154 0.173-0.356 0.13-0.549l-0.884-4.25c-0.1-0.416-0.399-0.746-0.806-0.892l-1.409-0.502-0.009 0.004c-0.585 0.382-1.049 0.515-1.344 0.386-0.247-0.107-0.291-0.369-0.291-0.369l-0.004-0.039-0.837 0.695c-0.195 0.163-0.312 0.399-0.321 0.652l-0.13 3.834-0.794 0.15v1.458l0.867-0.034-0.087 1.415c-0.004 0.013 0 0.021 0.009 0.034 0.052 0.082 0.507 0.356 1.695 0.356zM51.41 13.844c-0.16 0.064-1.522 0.609-2.905 0.695-1.635 0.103-2.194-0.266-2.22-0.326v-0.004l0.087-1.467-0.871 0.034v-1.377l0.794-0.15 0.13-3.868c0.009-0.24 0.121-0.463 0.303-0.618l0.78-0.648c0.022 0.082 0.095 0.274 0.308 0.365 0.312 0.137 0.772 0.009 1.379-0.382l1.392 0.493c0.39 0.137 0.681 0.459 0.776 0.862l0.884 4.25c0.039 0.18-0.009 0.369-0.121 0.515-0.117 0.146-0.291 0.232-0.477 0.24l-0.447 0.013 0.208 1.372z"></path>
<path fill="#141414" style="fill: var(--color4, #141414)" d="M51.228 12.473l0.003 0.043-4.918 0.279-0.002-0.043 4.917-0.279z"></path>
<path fill="#141414" style="fill: var(--color4, #141414)" d="M46.259 11.258l3.742-0.763-0.338-1.844-0.043 0.009 0.334 1.801-3.703 0.759 0.009 0.039z"></path>
<path fill="#ffac71" style="fill: var(--color7, #ffac71)" d="M30.317 10.542c-0.039 0.433 0.234 0.836 0.655 0.965l4.431 1.364 0.42 0.146c0.161 0.056 0.334 0.073 0.503 0.051l0.85-0.103c0.052-0.009 0.108-0.021 0.156-0.039l0.993-0.36c0.126-0.047 0.238-0.133 0.312-0.244l0.013-0.021c0.052-0.077-0.004-0.18-0.1-0.18h-1.596c0.464-0.292 0.429-0.549 0.429-0.549l-0.98 0.133-0.715 0.086-3.377-1.63 0.39-1.926 0.078-0.39h-2.246l-0.022 0.227-0.195 2.47z"></path>
<path fill="#141414" style="fill: var(--color4, #141414)" d="M36.192 13.098c0.048 0 0.095-0.004 0.139-0.009l0.85-0.103c0.056-0.009 0.113-0.021 0.161-0.039l0.993-0.36c0.135-0.047 0.243-0.133 0.321-0.253l0.013-0.021c0.030-0.043 0.030-0.099 0.004-0.142-0.026-0.047-0.069-0.073-0.126-0.073h-1.522c0.408-0.279 0.382-0.519 0.377-0.532l-0.004-0.021-1.002 0.133-0.711 0.082-3.356-1.617 0.473-2.329h-2.289l-0.234 2.723c-0.039 0.446 0.238 0.853 0.672 0.986l4.431 1.364 0.421 0.146c0.134 0.043 0.264 0.064 0.39 0.064zM38.559 12.142c0.035 0 0.069 0.017 0.087 0.051 0.017 0.030 0.017 0.069-0.004 0.099l-0.013 0.021c-0.074 0.107-0.178 0.189-0.299 0.236l-0.993 0.36c-0.048 0.017-0.1 0.030-0.152 0.039l-0.85 0.103c-0.165 0.021-0.338 0.004-0.494-0.051l-0.421-0.146-4.431-1.364c-0.412-0.129-0.676-0.515-0.642-0.944l0.23-2.685h2.198l-0.468 2.307 0.013 0.009 3.382 1.63 0.724-0.086 0.954-0.129c-0.004 0.064-0.052 0.274-0.42 0.506l-0.061 0.039h1.66v0.004z"></path>
<path fill="#141414" style="fill: var(--color4, #141414)" d="M32.987 6.915l0.042 0.010-0.24 0.989-0.042-0.010 0.24-0.989z"></path>
<path fill="#141414" style="fill: var(--color4, #141414)" d="M30.53 8.063l2.181 0.167 0.082-0.395h-2.246l-0.017 0.227z"></path>
<path fill="#141414" style="fill: var(--color4, #141414)" d="M42.211 19.332c-0.114 0-0.227 0.022-0.332 0.065s-0.201 0.106-0.282 0.186c-0.081 0.080-0.145 0.174-0.188 0.279s-0.066 0.216-0.066 0.328c0-0.228-0.092-0.446-0.254-0.607s-0.383-0.252-0.614-0.252c0.23 0 0.451-0.090 0.614-0.251s0.254-0.38 0.254-0.607c0 0.228 0.091 0.446 0.254 0.607s0.383 0.251 0.614 0.251l0 0z"></path>
<path fill="#a1c487" style="fill: var(--color3, #a1c487)" d="M44.51 24.757c0.195 0 0.354-0.157 0.354-0.35s-0.158-0.35-0.354-0.35c-0.196 0-0.354 0.157-0.354 0.35s0.158 0.35 0.354 0.35z"></path>
<path fill="#a1c487" style="fill: var(--color3, #a1c487)" d="M29.984 20.767c0.196 0 0.354-0.157 0.354-0.35s-0.158-0.35-0.354-0.35c-0.196 0-0.354 0.157-0.354 0.35s0.159 0.35 0.354 0.35z"></path>
<path fill="#a1c487" style="fill: var(--color3, #a1c487)" d="M42.080 15.055c0.25 0 0.452-0.2 0.452-0.448s-0.202-0.448-0.452-0.448c-0.25 0-0.452 0.2-0.452 0.448s0.202 0.448 0.452 0.448z"></path>
<path fill="#141414" style="fill: var(--color4, #141414)" d="M17.3 24.385c-0.189 0-0.37 0.074-0.503 0.206s-0.208 0.311-0.208 0.498c0-0.187-0.075-0.366-0.208-0.498s-0.314-0.206-0.503-0.206c0.189 0 0.37-0.074 0.503-0.206s0.208-0.311 0.208-0.498c0 0.187 0.075 0.366 0.208 0.498s0.314 0.206 0.503 0.206z"></path>
<path fill="#a1c487" style="fill: var(--color3, #a1c487)" d="M21.461 23.923c0.13 0 0.236-0.105 0.236-0.234s-0.106-0.234-0.236-0.234-0.236 0.105-0.236 0.234c0 0.129 0.106 0.234 0.236 0.234z"></path>
<path fill="#141414" style="fill: var(--color4, #141414)" d="M28.143 12.17c-0.114-0-0.227 0.022-0.332 0.065s-0.201 0.106-0.282 0.186c-0.081 0.080-0.144 0.174-0.188 0.278s-0.066 0.216-0.066 0.329c0-0.228-0.091-0.446-0.254-0.607s-0.383-0.251-0.614-0.251c0.23 0 0.451-0.090 0.614-0.251s0.254-0.379 0.254-0.607c0 0.228 0.092 0.446 0.254 0.607s0.383 0.251 0.614 0.251l0 0z"></path>
<path fill="#fff" style="fill: var(--color1, #fff)" d="M26.942 6.791h0.002l0.002-0c0.106-0.003 0.212 0.015 0.311 0.052s0.189 0.095 0.265 0.168c0.076 0.073 0.137 0.16 0.178 0.257s0.063 0.2 0.063 0.305c0 0.105-0.021 0.208-0.063 0.305s-0.102 0.184-0.178 0.257c-0.076 0.073-0.166 0.13-0.265 0.168s-0.205 0.056-0.311 0.052l-0.002-0h-3.608c-0.097 0.001-0.193-0.022-0.28-0.065s-0.161-0.107-0.218-0.184-0.094-0.168-0.108-0.262c-0.015-0.095-0.006-0.191 0.025-0.282s0.083-0.173 0.153-0.24c0.070-0.067 0.155-0.116 0.247-0.144s0.191-0.033 0.287-0.016c0.095 0.017 0.186 0.057 0.262 0.116l0.182 0.139-0.033-0.226c-0.052-0.354 0.038-0.715 0.253-1.004s0.535-0.483 0.894-0.54 0.725 0.028 1.020 0.236c0.295 0.208 0.496 0.522 0.559 0.875l0.019 0.105 0.101-0.032c0.079-0.025 0.161-0.038 0.244-0.038z"></path>
<path fill="#a1c487" style="fill: var(--color3, #a1c487)" d="M27.741 31.91c0.13 0 0.236-0.105 0.236-0.234s-0.106-0.234-0.236-0.234c-0.13 0-0.236 0.105-0.236 0.234s0.106 0.234 0.236 0.234z"></path>
</symbol>
<symbol id="icon-logo" viewBox="0 0 32 32">
<path fill="#77ac63" style="fill: var(--color2, #77ac63)" d="M29.082 0.314h-4.009c-1.237 0-2.24 0.983-2.24 2.195v3.929c0 1.212 1.003 2.195 2.24 2.195h4.009c1.237 0 2.24-0.983 2.24-2.195v-3.929c0-1.212-1.003-2.195-2.24-2.195z"></path>
<path fill="#77ac63" style="fill: var(--color2, #77ac63)" d="M6.73 23.040h-4.318c-1.332 0-2.412 0.983-2.412 2.195v3.929c0 1.213 1.080 2.195 2.412 2.195h4.318c1.332 0 2.412-0.983 2.412-2.195v-3.929c0-1.212-1.080-2.195-2.412-2.195z"></path>
<path fill="#77ac63" style="fill: var(--color2, #77ac63)" d="M6.25 11.582h-4.009c-1.237 0-2.24 0.983-2.24 2.195v3.929c0 1.212 1.003 2.195 2.24 2.195h4.009c1.237 0 2.24-0.983 2.24-2.195v-3.929c0-1.212-1.003-2.195-2.24-2.195z"></path>
<path fill="#77ac63" style="fill: var(--color2, #77ac63)" d="M17.766 22.978h-4.009c-1.237 0-2.24 0.983-2.24 2.195l-0 3.929c0 1.212 1.003 2.195 2.241 2.195h4.009c1.237 0 2.24-0.983 2.24-2.195v-3.929c0-1.213-1.003-2.195-2.24-2.195z"></path>
<path fill="#77ac63" style="fill: var(--color2, #77ac63)" d="M6.25 0.086h-4.009c-1.237 0-2.24 0.983-2.24 2.195v3.929c0 1.212 1.003 2.195 2.24 2.195h4.009c1.237 0 2.24-0.983 2.24-2.195v-3.929c0-1.212-1.003-2.195-2.24-2.195z"></path>
<path fill="#77ac63" style="fill: var(--color2, #77ac63)" d="M18.076 11.697h-4.009c-1.237 0-2.24 0.983-2.24 2.195v3.929c0 1.212 1.003 2.195 2.24 2.195h4.009c1.237 0 2.24-0.983 2.24-2.195v-3.929c0-1.212-1.003-2.195-2.24-2.195z"></path>
<path fill="#77ac63" style="fill: var(--color2, #77ac63)" d="M29.333 22.978h-4.010c-1.237 0-2.24 0.983-2.24 2.195v3.929c0 1.212 1.003 2.195 2.24 2.195h4.009c1.237 0 2.24-0.983 2.24-2.195v-3.929c0-1.213-1.003-2.195-2.24-2.195z"></path>
<path fill="#77ac63" style="fill: var(--color2, #77ac63)" d="M17.591 0.224h-4.009c-1.237 0-2.24 0.983-2.24 2.195v3.929c0 1.212 1.003 2.195 2.24 2.195h4.009c1.237 0 2.24-0.984 2.24-2.196v-3.929c0-1.212-1.003-2.195-2.24-2.195z"></path>
<path fill="#77ac63" style="fill: var(--color2, #77ac63)" d="M29.044 11.926h-4.010c-1.237 0-2.24 0.983-2.24 2.195v3.929c0 1.212 1.003 2.195 2.24 2.195h4.009c1.237 0 2.24-0.983 2.24-2.195v-3.929c0-1.212-1.003-2.195-2.24-2.195z"></path>
</symbol>
</defs>
</svg>
